<svg xmlns="http://www.w3.org/2000/svg" viewBox="0 0 60 60"  xmlns:v="https://vecta.io/nano"><path d="M54 58h-3v-4h-5V43.778c0-2.7-1.342-5.208-3.589-6.706L31.803 30l10.608-7.072C44.658 21.43 46 18.922 46 16.222V6h5V2h3a1 1 0 1 0 0-2H6a1 1 0 1 0 0 2h3v4h5v10.222c0 2.7 1.342 5.208 3.589 6.706L28.197 30l-10.608 7.072C15.342 38.57 14 41.078 14 43.778V54H9v4H6a1 1 0 1 0 0 2h48a1 1 0 1 0 0-2zM18.698 21.264A6.05 6.05 0 0 1 16 16.222V6h28v10.222a6.05 6.05 0 0 1-2.698 5.042L30 28.798l-11.302-7.534zM16 43.778a6.05 6.05 0 0 1 2.698-5.042L30 31.202l11.302 7.534A6.05 6.05 0 0 1 44 43.778V54H16V43.778zm4.917-25.842c-.574-.383-.917-1.024-.917-1.714V14a1 1 0 1 0-2 0v2.222a4.05 4.05 0 0 0 1.808 3.378l4.638 3.092a1 1 0 1 0 1.11-1.664l-4.639-3.092zM40.192 41.26l-4.638-3.092a1 1 0 1 0-1.11 1.664l4.638 3.092c.575.383.918 1.023.918 1.714v2.222a1 1 0 1 0 2 0v-2.222a4.05 4.05 0 0 0-1.808-3.378z"/></svg>