<svg xmlns="http://www.w3.org/2000/svg" viewBox="0 0 54 54"  xmlns:v="https://vecta.io/nano"><path d="M27 18c-4.962 0-9 4.038-9 9s4.038 9 9 9 9-4.038 9-9-4.038-9-9-9zm24.22 3h-2.018a22.84 22.84 0 0 0-2.26-5.457l1.426-1.426c.525-.525.814-1.224.814-1.966s-.289-1.441-.814-1.967l-4.553-4.553c-1.05-1.049-2.881-1.051-3.933 0l-1.426 1.426C36.74 6.07 34.911 5.313 33 4.798V2.78C33 1.247 31.753 0 30.22 0h-6.44C22.247 0 21 1.247 21 2.78v2.018a22.84 22.84 0 0 0-5.457 2.26l-1.426-1.426c-1.051-1.052-2.883-1.05-3.933 0l-4.553 4.553c-.525.525-.814 1.224-.814 1.967s.289 1.44.814 1.966l1.426 1.426C6.07 17.26 5.312 19.089 4.798 21H2.78C1.247 21 0 22.247 0 23.78v6.438C0 31.752 1.247 33 2.78 33h2.018a22.84 22.84 0 0 0 2.26 5.457l-1.426 1.426c-.525.525-.814 1.224-.814 1.966s.289 1.441.814 1.967l4.553 4.553a2.85 2.85 0 0 0 3.933 0l1.426-1.426c1.717.987 3.546 1.745 5.457 2.26v2.017C21 52.752 22.247 54 23.78 54h6.439c1.533 0 2.78-1.248 2.78-2.781v-2.017a22.84 22.84 0 0 0 5.457-2.26l1.426 1.426c1.052 1.052 2.882 1.05 3.933 0l4.553-4.553c.525-.525.814-1.224.814-1.967s-.289-1.44-.814-1.966l-1.426-1.426c.987-1.717 1.745-3.546 2.26-5.457h2.018c1.533 0 2.78-1.248 2.78-2.781V23.78c0-1.533-1.247-2.78-2.78-2.78zM39 27c0 6.617-5.383 12-12 12s-12-5.383-12-12 5.383-12 12-12 12 5.383 12 12z"/></svg>