<svg xmlns="http://www.w3.org/2000/svg" viewBox="0 0 57 57"  xmlns:v="https://vecta.io/nano"><path d="M22.66 0H3.34C1.498 0 0 1.498 0 3.34v19.32C0 24.502 1.498 26 3.34 26h19.32c1.842 0 3.34-1.498 3.34-3.34V3.34C26 1.498 24.502 0 22.66 0zm10.68 26h19.32c1.842 0 3.34-1.498 3.34-3.34V3.34C56 1.498 54.502 0 52.66 0H33.34C31.498 0 30 1.498 30 3.34v19.32c0 1.842 1.498 3.34 3.34 3.34zm-10.68 4H3.34C1.498 30 0 31.498 0 33.34v19.32C0 54.502 1.498 56 3.34 56h19.32c1.842 0 3.34-1.498 3.34-3.34V33.34c0-1.842-1.498-3.34-3.34-3.34zM55 41H45V31a2 2 0 1 0-4 0v10H31a2 2 0 1 0 0 4h10v10a2 2 0 1 0 4 0V45h10a2 2 0 1 0 0-4z"/></svg>