<svg xmlns="http://www.w3.org/2000/svg" viewBox="0 0 58.999 58.999"  xmlns:v="https://vecta.io/nano"><path d="M57.195 31.901c-.478-4.887-1.392-11.528-3.039-15.422A26.95 26.95 0 0 0 29.29 0c-3.587 0-7.085.701-10.396 2.083a33.62 33.62 0 0 0-2.761 1.301c-1.279.677-2.575 1.546-3.963 2.657C6.005 10.978 2.2 18.119 1.732 25.635c-.28 4.494.367 9.423 1.942 14.707.374 1.021 2.152 6.219 6.52 10.87-.013-6.379-.076-13.283-.374-15.318-.159-1.082-.455-2.169-.744-3.189-2.894-10.21 2.32-20.993 12.127-25.084a20.72 20.72 0 0 1 8.853-1.606c7.994.286 16.708 7.035 19.426 15.044 1.968 5.801 2.2 22.181 2.039 32.524.005-.006.011-.01.016-.016 7.033-7.815 5.716-21.111 5.658-21.666zM47.506 21.7C45.075 14.535 37.015 8.267 29.904 8.012c-2.753-.092-5.464.392-8.012 1.454-8.873 3.701-13.59 13.457-10.973 22.693.308 1.084.623 2.242.799 3.444.349 2.379.393 10.443.398 17.519a23.95 23.95 0 0 0 5 3.325l-.004-6.452c-.112-10.965-2.026-17.929-2.046-18-1.822-6.732.415-13.679 5.565-17.295a1 1 0 1 1 1.149 1.637c-4.463 3.134-6.387 9.213-4.786 15.127.083.294 2.008 7.304 2.118 18.534l.004 7.324c1.24.477 2.573.865 4 1.15-.018-11.806-.647-26.385-1.39-28.64-1.383-4.199.509-8.59 4.4-10.214A7.97 7.97 0 0 1 29.207 19c3.221 0 6.112 1.917 7.367 4.883 1.994 4.718 2.579 12.986 2.72 19.093a1 1 0 0 1-.977 1.023h-.023a1 1 0 0 1-1-.977c-.136-5.934-.69-13.934-2.558-18.353C33.791 22.438 31.622 21 29.207 21c-.796 0-1.573.156-2.312.464-2.917 1.217-4.323 4.546-3.27 7.743.914 2.78 1.483 18.882 1.49 29.591 1.042.125 2.132.193 3.269.201h1.879c.51-19.9-1.992-31.632-2.019-31.722a1 1 0 0 1 .683-1.239c.533-.15 1.086.152 1.239.683.11.382 2.616 12.109 2.099 32.278h4.951l-.055-7.971-.047-3.036a1 1 0 1 1 2 .014c-.005.737.02 1.814.046 2.977.033 1.438.069 5.744.055 7.971 1.425-.064 2.774-.251 4.043-.563.494-15.539.267-30.906-2.082-36.455C39.14 17.114 34.441 14 29.207 14c-.941 0-1.879.102-2.786.302-.547.112-1.073-.222-1.192-.761a1 1 0 0 1 .761-1.192c1.048-.232 2.13-.349 3.217-.349a14.97 14.97 0 0 1 13.813 9.155c2.472 5.84 2.747 20.736 2.259 36.615 1.509-.571 2.882-1.349 4.124-2.32.218-9.938.101-27.864-1.897-33.75z"/></svg>